<?xml version="1.0" encoding="UTF-8" standalone="no"?>
<svg width="34px" height="4px" viewBox="0 0 34 4" version="1.1" xmlns="http://www.w3.org/2000/svg" xmlns:xlink="http://www.w3.org/1999/xlink" xmlns:sketch="http://www.bohemiancoding.com/sketch/ns">
    <!-- Generator: Sketch 3.0.3 (7892) - http://www.bohemiancoding.com/sketch -->
    <title>Group</title>
    <desc>Created with Sketch.</desc>
    <defs></defs>
    <g id="Page-3" stroke="none" stroke-width="1" fill="none" fill-rule="evenodd" sketch:type="MSPage">
        <g id="Desktop-HD-2" sketch:type="MSArtboardGroup" transform="translate(-790.000000, -690.000000)" fill="#FFFFFF">
            <g id="Group-+-Group" sketch:type="MSLayerGroup" transform="translate(618.000000, 690.000000)">
                <g id="Group" transform="translate(172.000000, 0.000000)" sketch:type="MSShapeGroup">
                    <path d="M22,4 C23.1045695,4 24,3.1045695 24,2 C24,0.8954305 23.1045695,0 22,0 C20.8954305,0 20,0.8954305 20,2 C20,3.1045695 20.8954305,4 22,4 Z" id="Oval-6"></path>
                    <path d="M32,4 C33.1045695,4 34,3.1045695 34,2 C34,0.8954305 33.1045695,0 32,0 C30.8954305,0 30,0.8954305 30,2 C30,3.1045695 30.8954305,4 32,4 Z" id="Oval-7"></path>
                    <circle id="Oval-5" cx="12" cy="2" r="2"></circle>
                    <circle id="Oval-4" cx="2" cy="2" r="2"></circle>
                </g>
            </g>
        </g>
    </g>
</svg>