<?xml version="1.0" encoding="UTF-8" standalone="no"?>
<svg width="117px" height="60px" viewBox="0 0 117 60" version="1.1" xmlns="http://www.w3.org/2000/svg" xmlns:xlink="http://www.w3.org/1999/xlink" xmlns:sketch="http://www.bohemiancoding.com/sketch/ns">
    <!-- Generator: Sketch 3.0.3 (7892) - http://www.bohemiancoding.com/sketch -->
    <title>Line-5</title>
    <desc>Created with Sketch.</desc>
    <defs></defs>
    <g id="Page-1" stroke="none" stroke-width="1" fill="none" fill-rule="evenodd" sketch:type="MSPage">
        <path d="M87.857863,2.565046 L30.062815,60.067201 L29.709261,60.420755 L29.002155,59.713648 L0.857863,31.565046 L0,30.715801 L0.353553,30.362248 L29.362248,1.353553 L29.715801,1 L30.075157,1.354584 L56.65682,27.936247 L57.011404,28.290832 L56.302236,29 L55.947652,28.645416 L29.716125,2.41389 L1.418523,30.711492 L29.56497,58.857939 L87.377089,1.338711 L87.730643,0.985158 L88.437749,1.692265 L117.069355,30.362324 L117.422908,30.715877 L116.715801,31.422984 L88.025523,60.104492 L87.67197,60.458045 L87.269292,60.069355 L60.764982,33.565045 L60.411429,33.211492 L61.118535,32.504385 L61.472089,32.857939 L87.664976,59.050825 L115.857863,30.857939 L87.857863,2.565046 Z" id="Line-5" opacity="0.2" fill="#FFFFFF" sketch:type="MSShapeGroup"></path>
    </g>
</svg>