<?xml version="1.0" encoding="UTF-8" standalone="no"?>
<svg width="21px" height="17px" viewBox="0 0 21 17" version="1.1" xmlns="http://www.w3.org/2000/svg" xmlns:xlink="http://www.w3.org/1999/xlink" xmlns:sketch="http://www.bohemiancoding.com/sketch/ns">
    <!-- Generator: Sketch 3.0.3 (7892) - http://www.bohemiancoding.com/sketch -->
    <title>Fill-1</title>
    <desc>Created with Sketch.</desc>
    <defs></defs>
    <g id="Page-1" stroke="none" stroke-width="1" fill="none" fill-rule="evenodd" sketch:type="MSPage">
        <path d="M6.604,17 C4.171,17 1.906,16.289 0,15.072 C0.337,15.111 0.68,15.132 1.028,15.132 C3.047,15.132 4.904,14.445 6.379,13.295 C4.494,13.26 2.902,12.02 2.355,10.315 C2.618,10.365 2.888,10.391 3.166,10.391 C3.559,10.391 3.939,10.339 4.301,10.241 C2.33,9.847 0.844,8.113 0.844,6.033 L0.844,5.979 C1.425,6.3 2.089,6.494 2.796,6.516 C1.64,5.746 0.879,4.433 0.879,2.944 C0.879,2.157 1.091,1.42 1.462,0.786 C3.587,3.382 6.762,5.091 10.342,5.27 C10.268,4.956 10.23,4.628 10.23,4.292 C10.23,1.922 12.16,0 14.539,0 C15.778,0 16.898,0.521 17.684,1.355 C18.666,1.162 19.588,0.805 20.42,0.313 C20.098,1.315 19.415,2.156 18.525,2.687 C19.396,2.583 20.227,2.353 21,2.011 C20.422,2.872 19.691,3.628 18.85,4.233 C18.859,4.417 18.864,4.602 18.864,4.788 C18.863,10.461 14.529,17 6.604,17" id="Fill-1" fill="#FFFFFF" sketch:type="MSShapeGroup"></path>
    </g>
</svg>