<?xml version="1.0" encoding="utf-8"?>
<!-- Generator: Adobe Illustrator 16.0.4, SVG Export Plug-In . SVG Version: 6.00 Build 0)  -->
<!DOCTYPE svg PUBLIC "-//W3C//DTD SVG 1.1//EN" "http://www.w3.org/Graphics/SVG/1.1/DTD/svg11.dtd">
<svg version="1.1" id="Layer_1" xmlns:sketch="http://www.bohemiancoding.com/sketch/ns"
	 xmlns="http://www.w3.org/2000/svg" xmlns:xlink="http://www.w3.org/1999/xlink" x="0px" y="0px" width="21px" height="17px"
	 viewBox="0 0 21 17" enable-background="new 0 0 21 17" xml:space="preserve">
<title>Fill 1</title>
<desc>Created with Sketch.</desc>
<g id="Page-2" sketch:type="MSPage">
	<g id="Desktop-HD" transform="translate(-740.000000, -684.000000)" sketch:type="MSArtboardGroup">
		<g id="Group" transform="translate(662.000000, 662.000000)" sketch:type="MSLayerGroup">
			<path id="Fill-1" sketch:type="MSShapeGroup" opacity="0.8" fill="#FFFFFF" enable-background="new    " d="M84.604,39
				c-2.433,0-4.698-0.711-6.604-1.928c0.337,0.039,0.68,0.06,1.028,0.06c2.019,0,3.876-0.687,5.351-1.837
				c-1.885-0.035-3.477-1.275-4.024-2.98c0.263,0.05,0.533,0.076,0.811,0.076c0.393,0,0.773-0.052,1.135-0.15
				c-1.971-0.394-3.457-2.128-3.457-4.208c0-0.018,0-0.036,0-0.054c0.581,0.321,1.245,0.515,1.952,0.537
				c-1.156-0.77-1.917-2.083-1.917-3.572c0-0.787,0.212-1.524,0.583-2.158c2.125,2.596,5.3,4.305,8.88,4.484
				c-0.074-0.314-0.112-0.642-0.112-0.978c0-2.37,1.93-4.292,4.309-4.292c1.239,0,2.359,0.521,3.145,1.355
				c0.982-0.193,1.904-0.55,2.736-1.042c-0.322,1.002-1.005,1.843-1.895,2.374c0.871-0.104,1.702-0.334,2.475-0.676
				c-0.578,0.861-1.309,1.617-2.15,2.222c0.009,0.184,0.014,0.369,0.014,0.555C96.863,32.461,92.529,39,84.604,39"/>
		</g>
		<g id="Group-_x2B_-Group-3" transform="translate(619.000000, 691.000000)" sketch:type="MSLayerGroup">
		</g>
		<g id="Keywords" transform="translate(128.000000, 130.000000)" sketch:type="MSLayerGroup">
		</g>
	</g>
</g>
</svg>
