<?xml version="1.0" encoding="UTF-8" standalone="no"?>
<svg width="180px" height="23px" viewBox="0 0 180 23" version="1.1" xmlns="http://www.w3.org/2000/svg" xmlns:xlink="http://www.w3.org/1999/xlink" xmlns:sketch="http://www.bohemiancoding.com/sketch/ns">
    <!-- Generator: Sketch 3.0.3 (7892) - http://www.bohemiancoding.com/sketch -->
    <title>Rectangle 246</title>
    <desc>Created with Sketch.</desc>
    <defs></defs>
    <g id="Page-1" stroke="none" stroke-width="1" fill="none" fill-rule="evenodd" sketch:type="MSPage">
        <path d="M10.9807431,19.4119828 L19.9302258,0.617848928 C20.189906,0.0725140693 20.8317917,-0.154070232 21.3615052,0.110553599 C21.8922987,0.375716984 22.112065,1.03278602 21.8523992,1.57809049 L12.0114585,22.2443083 C11.8151341,22.6565943 11.4003519,22.8866916 10.9807431,22.8600773 C10.5611344,22.8866916 10.1463522,22.6565943 9.9500278,22.2443083 L0.109087046,1.57809049 C-0.150578703,1.03278602 0.0691875835,0.375716984 0.599981113,0.110553599 C1.12969458,-0.154070232 1.77158023,0.0725140693 2.03126045,0.617848928 L10.9807431,19.4119828 L10.9807431,19.4119828 Z M168.881733,3.45017438 L177.115174,20.7406024 L169.951246,20.7406024 C169.36057,20.7406024 168.881733,21.232188 168.881733,21.8358405 C168.881733,22.4407238 169.363622,22.9310786 169.951246,22.9310786 L178.861725,22.9310786 C179.452401,22.9310786 179.931238,22.439493 179.931238,21.8358405 C179.931238,21.5689315 179.837411,21.3243221 179.682074,21.1343018 L179.682074,21.1343018 L169.912449,0.617848928 C169.716124,0.205562874 169.301342,-0.0245343593 168.881733,0.00207990054 C168.462125,-0.0245343593 168.047342,0.205562874 167.851018,0.617848928 L158.010077,21.2840667 C157.750411,21.8293712 157.970178,22.4864402 158.500971,22.7516036 C159.030685,23.0162275 159.67257,22.7896432 159.932251,22.2443083 L168.881733,3.45017438 L168.881733,3.45017438 Z M132.838415,22.6107815 C132.645067,22.4132599 132.525298,22.140549 132.525298,21.8393493 L132.525298,1.38788725 C132.525298,0.789970856 133.004043,0.296157976 133.594605,0.296157976 C134.183965,0.296157976 134.663911,0.784941819 134.663911,1.38788725 L134.663911,20.7406024 L145.358582,20.7406024 C145.947784,20.7406024 146.426288,21.2309572 146.426288,21.8358405 C146.426288,22.439493 145.94826,22.9310786 145.358582,22.9310786 L133.593003,22.9310786 C133.298972,22.9310786 133.032508,22.8089634 132.839321,22.6114394 L132.838415,22.6107815 L132.838415,22.6107815 Z M32.3314609,20.7406024 L39.4953888,20.7406024 C40.0830132,20.7406024 40.5649016,21.2309572 40.5649016,21.8358405 C40.5649016,22.439493 40.0860644,22.9310786 39.4953888,22.9310786 L30.5849094,22.9310786 C29.997285,22.9310786 29.5153966,22.4407238 29.5153966,21.8358405 C29.5153966,21.5684411 29.6093548,21.3230317 29.7653716,21.1326 L39.5341862,0.617848928 C39.7305106,0.205562874 40.1452928,-0.0245343593 40.5649016,0.00207990054 C40.9845103,-0.0245343593 41.3992925,0.205562874 41.5956169,0.617848928 L51.4365576,21.2840667 C51.6962234,21.8293712 51.4764571,22.4864402 50.9456636,22.7516036 C50.4159501,23.0162275 49.7740645,22.7896432 49.5143842,22.2443083 L40.5649016,3.45017438 L32.3314609,20.7406024 L32.3314609,20.7406024 Z M84.0500501,4.33725946 L84.0500501,21.8393493 C84.0500501,22.4372657 83.571305,22.9310786 82.9807431,22.9310786 C82.3913829,22.9310786 81.9114362,22.4422948 81.9114362,21.8393493 L81.9114362,1.38788725 C81.9114362,0.789970856 82.3901812,0.296157976 82.9807431,0.296157976 C83.0284399,0.296157976 83.0754201,0.299359329 83.1214873,0.305563462 C83.427197,0.31137595 83.7289365,0.450399743 83.9367511,0.713252793 L98.3074758,18.8899771 L98.3074758,1.38788725 C98.3074758,0.789970856 98.7862208,0.296157976 99.3767827,0.296157976 C99.966143,0.296157976 100.44609,0.784941819 100.44609,1.38788725 L100.44609,21.8393493 C100.44609,22.4372657 99.9673447,22.9310786 99.3767827,22.9310786 C99.3290859,22.9310786 99.2821058,22.9278773 99.2360386,22.9216731 C98.9303289,22.9158606 98.6285894,22.7768368 98.4207748,22.5139838 L84.0500501,4.33725946 L84.0500501,4.33725946 Z M65.8718322,0.296157976 C65.2812703,0.296157976 64.8025253,0.789970856 64.8025253,1.38788725 L64.8025253,21.8393493 C64.8025253,22.4422948 65.282472,22.9310786 65.8718322,22.9310786 C66.4623942,22.9310786 66.9411392,22.4372657 66.9411392,21.8393493 L66.9411392,1.38788725 C66.9411392,0.784941819 66.4611925,0.296157976 65.8718322,0.296157976 L65.8718322,0.296157976 L65.8718322,0.296157976 Z M116.485694,0.296157976 C115.895132,0.296157976 115.416387,0.789970856 115.416387,1.38788725 L115.416387,21.8393493 C115.416387,22.4422948 115.896333,22.9310786 116.485694,22.9310786 C117.076256,22.9310786 117.555001,22.4372657 117.555001,21.8393493 L117.555001,1.38788725 C117.555001,0.784941819 117.075054,0.296157976 116.485694,0.296157976 L116.485694,0.296157976 L116.485694,0.296157976 Z" id="Rectangle-246" fill="#FFFFFF" sketch:type="MSShapeGroup"></path>
    </g>
</svg>